<svg width="183" height="182" viewBox="0 0 183 182" fill="none" xmlns="http://www.w3.org/2000/svg">
<path d="M150.846 1.85876C141.1 4.61298 127.541 11.8163 112.923 21.9857L107.732 25.5873L111.334 26.7526C114.618 27.9178 115.677 27.6 123.94 23.3628C135.168 17.6425 140.465 16.7951 145.444 19.8671C154.13 25.1636 153.388 35.4389 143.007 54.0828C125.634 85.0148 79.1306 130.459 49.258 145.607C33.5802 153.446 23.7286 153.129 19.5973 144.336C17.2668 139.357 18.0083 135.332 23.5167 123.574C27.3303 115.523 27.754 113.828 26.9065 110.862L25.8472 107.366L18.3261 118.489C5.50842 137.663 0 150.692 0 161.921C0 169.23 1.58897 173.15 6.35587 177.069C18.3261 187.238 42.5843 181.518 72.5629 161.391C88.7703 150.586 99.7872 141.476 116.948 124.845C154.977 87.9808 179.977 49.6337 181.884 25.2696C183.473 4.71891 171.82 -4.17931 150.846 1.85876Z" fill="#614DE2"/>
<path d="M74.1524 27.8119C60.4873 31.3076 48.729 38.7228 40.2545 48.9981C30.7206 60.6505 26.4834 72.8326 26.4834 88.5104C26.4834 106.413 32.3096 120.714 44.3858 132.79L51.9069 140.205L55.5085 138.192C73.1991 128.658 113.241 90.5231 130.084 67.2183C135.381 59.8031 139.83 53.0235 139.83 52.3879C139.83 47.3032 120.974 33.1084 109.322 29.4008C100.212 26.5407 82.521 25.6932 74.1524 27.8119Z" fill="#9E91ED"/>
<path d="M144.066 101.752C135.804 111.921 111.546 135.756 100.741 144.442C91.7364 151.645 92.372 152.705 104.024 149.845C115.571 146.879 123.622 142.112 132.944 132.79C142.266 123.574 146.927 115.629 149.893 103.765C152.753 92.7477 151.799 92.4299 144.066 101.752Z" fill="#9E91ED"/>
</svg>
