<svg width="266" height="219" viewBox="0 0 266 219" fill="none" xmlns="http://www.w3.org/2000/svg">
<path d="M117.333 18.1334C102 20.6667 96.7999 22.1334 88.6666 25.8667C63.1999 37.7334 45.4665 59.3334 39.1999 86C34.2665 107.067 41.0665 147.867 48.2665 140.667C48.6665 140.267 47.8665 136.667 46.3999 132.667C36.1332 102.133 44.1332 68.9334 67.0666 46.5334C112.533 2.26668 188.267 23.6 204.933 85.4667C207.467 95.2 207.867 115.2 205.6 123.067C204.4 127.333 204.533 128.133 206.667 129.333C208.933 130.533 209.333 129.867 210.667 123.067C213.2 110.933 211.733 89.3334 207.6 77.6C198.133 50.5334 177.6 30.6667 150.267 22C140.8 18.9334 123.867 17.0667 117.333 18.1334Z" fill="#fff"/>
<path d="M113.867 26.6667C81.4667 31.6 55.3333 55.2 47.2 86.6667C44.2667 98 45.2 120.4 48.8 130.667C51.2 136.933 52 138 55.7333 138.8C60.6667 139.733 65.3333 143.467 65.3333 146.267C65.3333 147.2 66.4 148.4 67.7333 148.933C68.9333 149.333 70.9333 150.533 72.1333 151.6C75.6 154.533 84 158.533 84 157.2C84 156.533 86 154.8 88.4 153.333C93.0667 150.533 100 149.867 104 152C105.733 152.933 106.8 152.667 108.133 151.2C109.2 149.867 111.6 149.333 114.933 149.6C118.4 149.733 120.533 149.2 121.333 148C122.933 145.467 123.067 113.333 121.467 113.333C120.133 113.333 116.4 100.4 115.2 91.3333C114.133 82.9333 116.4 71.0667 120.8 61.4667L124.133 54L126.667 57.3333C133.2 66 135.867 84.4 132.667 98.6667C131.333 104.133 130.267 109.733 130.267 110.933C130.133 112.267 129.333 113.333 128.4 113.333C127.067 113.333 126.667 116.8 126.667 127.467C126.667 136.4 127.2 141.2 128 140.667C128.8 140.267 129.333 134.267 129.333 127.2C129.333 119.733 129.867 114.667 130.667 114.667C131.467 114.667 132 119.733 132 126.933V139.333L137.333 141.6C141.467 143.333 142.933 144.667 143.467 147.867C144 150.4 144.933 151.6 146 151.067C147.067 150.8 149.067 151.733 150.533 153.2C152.133 154.8 154.133 156 155.067 156C155.867 156 158.267 156.933 160.4 157.867C163.467 159.6 164 159.6 164 158C164 155.867 170.533 152 174 152C175.2 152 176 150.8 176 148.933C176 144.267 180.667 138 185.467 136C188 134.933 190.8 133.067 191.733 131.733C192.667 130.4 195.467 128.533 197.867 127.467C203.2 125.333 204 122.133 204 105.467C204 82.6667 197.2 66.2667 180.8 49.8667C172.533 41.6 167.733 38 160 34.4C145.067 27.3333 128 24.4 113.867 26.6667ZM129.067 48.6667C133.733 55.3333 138.667 68.4 140.133 77.6C141.467 85.8667 140.133 99.8667 137.333 107.333C136.4 109.733 136.4 111.733 137.467 113.467C139.2 116.8 138.533 128.267 136.4 128.933C135.467 129.333 134.667 126.533 134.133 121.067C133.733 116.4 133.333 112 133.2 111.333C133.2 110.533 134.133 106.133 135.333 101.333C139.333 86.5333 136.4 67.0667 128.4 54.2667C126.667 51.4667 124.667 49.6 123.867 50C121.6 51.4667 116 63.8667 113.733 72.4C111.333 81.8667 112 97.2 115.2 106.133C116.4 109.467 116.667 112.267 115.867 113.467C115.2 114.533 114.667 121.467 114.667 128.933C114.667 140.267 114.267 142.667 112.667 142.667C111.067 142.667 110.667 140.267 110.667 129.2C110.667 121.867 111.2 114.8 112 113.467C112.8 111.867 112.533 108.933 111.2 104.533C108.133 94.6667 108.4 75.8667 111.867 66C115.2 56.8 122.533 44 124.667 44C125.333 44 127.467 46.1333 129.067 48.6667ZM99.2 54.8C98.8 55.4667 97.8667 55.7333 97.2 55.2C96.5333 54.8 96.2667 53.8667 96.8 53.2C97.2 52.5333 98.1333 52.2667 98.8 52.8C99.4667 53.2 99.7333 54.1333 99.2 54.8ZM176.533 60.1333C176.133 60.8 175.2 61.0667 174.533 60.5333C173.867 60.1333 173.6 59.2 174.133 58.5333C174.533 57.8667 175.467 57.6 176.133 58.1333C176.8 58.5333 177.067 59.4667 176.533 60.1333ZM66.6667 76C66.6667 76.6667 66.1333 77.3333 65.3333 77.3333C64.6667 77.3333 64 76.6667 64 76C64 75.2 64.6667 74.6667 65.3333 74.6667C66.1333 74.6667 66.6667 75.2 66.6667 76ZM160.533 86.8C160.133 87.4667 159.2 87.7333 158.533 87.2C157.867 86.8 157.6 85.8667 158.133 85.2C158.533 84.5333 159.467 84.2667 160.133 84.8C160.8 85.2 161.067 86.1333 160.533 86.8ZM95.0667 103.467C94.5333 105.067 94 105.2 93.2 103.867C92 101.867 92.9333 99.6 94.6667 100.667C95.3333 101.067 95.4667 102.4 95.0667 103.467ZM183.6 116.667C182.533 117.867 181.467 117.867 179.733 116.933C177.733 115.6 177.733 115.333 179.733 113.867C182.667 111.733 186 114 183.6 116.667ZM120 125.333C120 131.6 119.467 136 118.667 136C117.867 136 117.333 131.6 117.333 125.333C117.333 119.067 117.867 114.667 118.667 114.667C119.467 114.667 120 119.067 120 125.333ZM81.0667 128.133C82.9333 128.133 82.9333 128.4 81.3333 128.933C80.2667 129.333 79.0667 130.133 78.6667 130.667C78.2667 131.067 76.5333 130.667 74.6667 129.733C72.1333 128.4 71.8667 128 73.7333 128C75.0667 128 76.5333 126.933 77.0667 125.6C77.8667 123.467 78 123.467 78.4 125.6C78.6667 126.933 79.8667 128 81.0667 128.133ZM160 131.467C160 132.533 159.333 133.067 158.667 132.667C157.867 132.133 157.6 131.2 158 130.533C159.2 128.667 160 129.067 160 131.467ZM138 134.667C138 135.6 137.2 136.667 136.4 136.933C135.333 137.333 134.667 136.4 134.667 134.667C134.667 132.933 135.333 132 136.4 132.267C137.2 132.667 138 133.733 138 134.667ZM120 140.667C120 141.733 119.467 142.667 118.667 142.667C118 142.667 117.333 141.733 117.333 140.667C117.333 139.6 118 138.667 118.667 138.667C119.467 138.667 120 139.6 120 140.667Z" fill="#fff"/>
<path d="M121.333 78.0001C118.667 81.3334 120.267 84.6667 124.667 84.6667C127.467 84.6667 128.8 84.0001 129.067 82.2667C129.6 79.4667 127.2 76.0001 124.667 76.0001C123.733 76.0001 122.267 76.9334 121.333 78.0001Z" fill="#fff"/>
</svg>
